<?xml version="1.0" encoding="utf-8"?>
<!-- Generator: Adobe Illustrator 18.1.0, SVG Export Plug-In . SVG Version: 6.00 Build 0)  -->
<svg version="1.1" id="图层_1" xmlns="http://www.w3.org/2000/svg" xmlns:xlink="http://www.w3.org/1999/xlink" x="0px" y="0px"
	 viewBox="90 19.5 300 82" enable-background="new 90 19.5 300 82" xml:space="preserve">
<title>QQ音乐</title>
<path fill="#F2F2F2" d="M334.5,43.6h-44v-5h18.9l-1.3-4h6.9l1.2,4h18.3V43.6z M332.5,64.1v23h-40V76.8v-5V61.4h37.2
	C331.3,61.4,332.5,62.6,332.5,64.1z M326.6,76.8h-28.1v5.3h28.1V76.8z M326.6,67.8c0-0.7-0.6-1.4-1.4-1.4h-26.7v5.3h28.1V67.8z
	 M328.8,45.9h-5.9l-3.1,7.1h-14.4l-3.2-7.1h-5.9l3.1,7.1h-12.5v5h51.4v-5h-12.5L328.8,45.9z M342.4,84.8h6.4l7.3-17.1h-6.4
	L342.4,84.8z M382.6,67.6h-6.4l7.2,17.1h6.4L382.6,67.6z M387.1,58.3H370V46.2l-5.6-1.1v13.3h-12.1c-0.8,0-1.5-0.7-1.4-1.6l1.3-15
	l32.4-1v-5l-37.5,1.1h-0.8l-2.1,23.4c-0.1,1.6,1.2,3,2.8,3h17.3v18h-7l2.2,5.9h10.4V63.4h17V58.3z M226.4,79.8l5.2,7.4h-7.2
	l-2.3-3.3c-3,2.1-6.5,3.3-10.4,3.3h-6.3c-10.1,0-18.2-8.1-18.2-18.2V52.9c0-10.1,8.1-18.2,18.2-18.2h6.3c10.1,0,18.2,8.1,18.2,18.2
	V69C229.9,73,228.6,76.8,226.4,79.8z M224.1,52.9c0-6.8-5.6-12.3-12.3-12.3h-6.3c-6.8,0-12.3,5.6-12.3,12.3V69
	c0,6.8,5.6,12.3,12.3,12.3h6.3c2.6,0,5-0.8,7-2.2l-8.7-12.4h7.2l5.5,7.9c0.8-1.7,1.3-3.6,1.3-5.6V52.9z M275.6,79.8l5.2,7.4h-7.2
	l-2.3-3.3c-3,2.1-6.5,3.3-10.4,3.3h-6.3c-10.1,0-18.2-8.1-18.2-18.2V52.9c0-10.1,8.1-18.2,18.2-18.2h6.3c10.1,0,18.2,8.1,18.2,18.2
	V69C279.1,73,277.8,76.8,275.6,79.8z M273.3,52.9c0-6.8-5.6-12.3-12.3-12.3h-6.3c-6.8,0-12.3,5.6-12.3,12.3V69
	c0,6.8,5.6,12.3,12.3,12.3h6.3c2.5,0,5-0.8,7-2.2l-8.7-12.4h7.2l5.5,7.9c0.8-1.7,1.3-3.6,1.3-5.6V52.9z"/>
<g id="Shape_1_">
	<path fill="#FFDC00" d="M154.7,27.9l-1.3-8.4l-4.5,4.9c-5.4-2.7-11.6-4.2-18-4.2c-22.4,0-40.7,18.2-40.7,40.7s18.2,40.7,40.7,40.7
		s40.7-18.2,40.7-40.7C171.6,47.4,164.9,35.4,154.7,27.9z"/>
	
		<linearGradient id="SVGID_1_" gradientUnits="userSpaceOnUse" x1="178.2701" y1="120.7682" x2="178.2701" y2="119.7657" gradientTransform="matrix(40.4777 0 0 -77.8913 -7082.8442 9426.3701)">
		<stop  offset="0" style="stop-color:#00CBCB"/>
		<stop  offset="0.1617" style="stop-color:#0FC8B2"/>
		<stop  offset="0.4497" style="stop-color:#28C48B"/>
		<stop  offset="0.6" style="stop-color:#31C27C"/>
		<stop  offset="0.7" style="stop-color:#21C077"/>
		<stop  offset="0.8857" style="stop-color:#09BD71"/>
		<stop  offset="1" style="stop-color:#00BC6E"/>
	</linearGradient>
	<path fill="url(#SVGID_1_)" d="M147.5,74l-16.8-28.9c8.4-4.4,18.7-13.6,22.7-25.6c-10.5,7.7-23.8,9.6-35.3,9.5
		c-1.6,0-2.7,1.8-1.9,3.2l3.4,5.9l16.6,28.7c-2-0.4-4.1-0.6-6.3-0.4c-10.1,0.9-17.9,8.6-17,17.2c0.7,8.6,9.6,14.9,19.8,14
		c10.1-0.9,17.9-8.6,17-17.2C149.5,78,148.7,75.9,147.5,74z"/>
</g>
</svg>
